Coordinates
version=1
nRows=7
nColumns=33
inDegrees=yes

Units are S.I. units (second, meters, Newtons, ...)
Angles are in degrees.

endheader
time	ground_thorax_rot_x	ground_thorax_rot_y	ground_thorax_rot_z	ground_thorax_tx	ground_thorax_ty	ground_thorax_tz	clav_prot_r	clav_elev_r	scapula_abduction_r	scapula_elevation_r	scapula_upward_rot_r	scapula_winging_r	shoulder_elv_r	plane_of_elev_r	axial_rot_r	elbow_flexion_r	pro_sup_r	wrist_flex_r	wrist_dev_r	clav_prot_l	clav_elev_l	scapula_abduction_l	scapula_elevation_l	scapula_upward_rot_l	scapula_winging_l	shoulder_elv_l	plane_of_elev_l	axial_rot_l	elbow_flexion_l	pro_sup_l	wrist_flex_l	wrist_dev_l
      6.49000000	     39.87718250	      5.70679924	      4.62307777	    -55.52577038	    787.33791065	      1.62911233	     14.87407478	     42.43777633	     45.00000000	     43.00648218	    -20.14616811	    280.55822061	  -3713.97282769	    145.52878635	   -169.12155017	   1445.85073756	     30.45384606	     16.64051321	     14.25231058	      7.02425063	    -45.00000000	    -45.00000000	     45.00000000	    -11.98296932	   1523.41525497	  -1177.84297698	    132.39814970	   -147.59499883	   -359.75857624	   -318.02190265	     12.48343054	    -19.55738396
      6.50000000	     39.93602091	      5.46497725	      4.33063615	    -55.10583892	    787.43743704	      1.80395038	     15.07405101	     42.77380954	     45.00000000	     43.15754622	    -20.09812882	    280.55077830	  -3713.97280535	    145.41292369	   -169.64174993	   1445.92742508	     30.76149279	     16.32898973	     14.34330709	      6.72591916	    -45.00000000	    -45.00000000	     45.00000000	    -11.63242436	   1523.17902709	  -1177.84730765	    132.56057101	   -147.68056624	   -359.61387474	   -317.54534320	     12.36012291	    -19.45538190
      6.51000000	     39.93076222	      5.33108136	      4.26629215	    -54.89151324	    787.55899567	      1.99071962	     14.95743567	     42.64072460	     45.00000000	     43.15413159	    -19.91356210	    280.70030772	  -3713.90242805	    145.56808720	   -170.04768536	   1445.82233151	     30.93204242	     16.67650141	     14.28640109	      6.77126193	    -45.00000000	    -45.00000000	     45.00000000	    -11.28085788	   1523.45945167	  -1177.91229667	    132.30181693	   -147.70871439	   -359.88185513	   -317.23418226	     12.40124061	    -19.62077556
      6.52000000	     39.98036544	      5.13281270	      4.09729338	    -54.87028203	    787.69838999	      2.18151560	     14.91737639	     42.67592730	     45.00000000	     43.20956642	    -19.89119855	    280.52110288	  -3713.86745892	    145.31244382	   -170.26907184	   1445.88611697	     31.16206939	     16.49155110	     14.36054132	      6.53011390	    -45.00000000	    -45.00000000	     45.00000000	    -11.10218492	   1523.17387445	  -1177.82243555	    132.59594833	   -147.60040792	   -359.74691494	   -317.00797826	     12.31793621	    -19.54185115
      6.53000000	     39.97826183	      4.97476369	      4.08528319	    -55.03791944	    787.85266103	      2.36365954	     14.85533678	     42.75538093	     45.00000000	     43.22100628	    -19.76341370	    280.63922525	  -3713.78844695	    145.48825706	   -170.43319236	   1445.95337198	     31.23469429	     16.70745472	     14.30225262	      6.58174498	    -45.00000000	    -45.00000000	     45.00000000	    -10.89339068	   1523.57993179	  -1177.85139376	    132.32073962	   -147.50364144	   -359.87064509	   -316.88321025	     12.35803314	    -19.66232634
      6.54000000	     39.94805166	      4.87966829	      4.01100846	    -55.39061204	    788.02929157	      2.53756194	     14.80170019	     42.46635365	     45.00000000	     43.14456048	    -19.70725160	    280.35570855	  -3713.77495825	    145.30699194	   -170.39198145	   1446.00646564	     31.30844674	     16.66089785	     14.36100295	      6.41130951	    -45.00000000	    -45.00000000	     45.00000000	    -10.74690649	   1523.40573595	  -1177.71068794	    132.52492965	   -147.39018624	   -359.83062993	   -316.82129693	     12.32524393	    -19.63988174
      6.55000000	     39.97072176	      4.72990273	      4.02330045	    -55.92864700	    788.23158173	      2.69805013	     14.65993400	     42.63423008	     45.00000000	     43.23837557	    -19.63631478	    280.43806493	  -3713.67126283	    145.45287149	   -170.25691679	   1446.17512811	     31.27273985	     16.79549405	     14.29934042	      6.44273207	    -45.00000000	    -45.00000000	     45.00000000	    -10.61446113	   1523.80176648	  -1177.68395944	    132.28643341	   -147.33388237	   -359.93501793	   -316.82153473	     12.36677985	    -19.72832834
